<svg id="Layer_1" data-name="Layer 1" xmlns="http://www.w3.org/2000/svg" viewBox="0 0 469.39 175.59"><defs><style>.cls-1{font-size:150px;}.cls-1,.cls-2,.cls-6{fill:#4f4f4f;}.cls-1,.cls-6{font-family:Georgia;}.cls-3{fill:#ef4581;}.cls-4{fill:#feea3a;}.cls-5{fill:#00acc1;}.cls-6{font-size:47.13px;}</style></defs><text class="cls-1" transform="translate(0 126.97)">d</text><text class="cls-1" transform="translate(177.08 126.97)">j</text><text class="cls-1" transform="translate(302.84 126.97)">k</text><path class="cls-2" d="M276.35,213.66a43.49,43.49,0,0,1,39.14,24.5,33.66,33.66,0,0,1,4.36,16.61c0,.33,0,.66,0,1,0,.47,0,.94,0,1.41h-.09A33.82,33.82,0,0,1,268,283.41a41.15,41.15,0,0,0,40.24,8.75A43.51,43.51,0,0,0,270.74,214,43.33,43.33,0,0,1,276.35,213.66Z" transform="translate(-159.21 -171.54)"/><path class="cls-2" d="M295.69,296.54A43.52,43.52,0,0,1,254.47,267a33.71,33.71,0,0,1-2.28-12.21c0-.2,0-.39,0-.59,0-.38,0-.76,0-1.14h0a33.82,33.82,0,0,1,49.28-28.35,41.09,41.09,0,0,0-40.1-5.8,43.51,43.51,0,0,0,37.09,77.56C297.57,296.51,296.63,296.54,295.69,296.54Z" transform="translate(-159.21 -171.54)"/><circle class="cls-3" cx="127.01" cy="82.28" r="24.04"/><path class="cls-2" d="M410.71,213.66a43.49,43.49,0,0,1,39.14,24.5,33.55,33.55,0,0,1,4.36,16.61c0,.33,0,.66,0,1,0,.47,0,.94,0,1.41h-.09a33.82,33.82,0,0,1-51.74,26.25,41.15,41.15,0,0,0,40.24,8.75A43.51,43.51,0,0,0,405.1,214,43.33,43.33,0,0,1,410.71,213.66Z" transform="translate(-159.21 -171.54)"/><path class="cls-2" d="M430.05,296.54A43.52,43.52,0,0,1,388.83,267a33.71,33.71,0,0,1-2.28-12.21c0-.2,0-.39,0-.59,0-.38,0-.76,0-1.14h0a33.82,33.82,0,0,1,49.28-28.35,41.07,41.07,0,0,0-40.09-5.8,43.51,43.51,0,0,0,37.09,77.56C431.93,296.51,431,296.54,430.05,296.54Z" transform="translate(-159.21 -171.54)"/><circle class="cls-4" cx="261.17" cy="83.22" r="24.04"/><path class="cls-2" d="M575.43,213.66a43.49,43.49,0,0,1,39.14,24.5,33.66,33.66,0,0,1,4.36,16.61c0,.33,0,.66,0,1,0,.47,0,.94,0,1.41h-.09a33.82,33.82,0,0,1-51.74,26.25,41.15,41.15,0,0,0,40.24,8.75A43.51,43.51,0,0,0,569.82,214,43.33,43.33,0,0,1,575.43,213.66Z" transform="translate(-159.21 -171.54)"/><path class="cls-2" d="M594.77,296.54A43.52,43.52,0,0,1,553.55,267a33.71,33.71,0,0,1-2.28-12.21c0-.2,0-.39,0-.59,0-.38,0-.76,0-1.14h0a33.82,33.82,0,0,1,49.28-28.35,41.09,41.09,0,0,0-40.1-5.8,43.51,43.51,0,0,0,37.09,77.56C596.65,296.51,595.71,296.54,594.77,296.54Z" transform="translate(-159.21 -171.54)"/><circle class="cls-5" cx="425.89" cy="83.22" r="24.04"/><text class="cls-6" transform="translate(302.36 161.3) scale(1.78 1)">Beta</text></svg>