<svg xmlns="http://www.w3.org/2000/svg" xmlns:xlink="http://www.w3.org/1999/xlink" width="136" height="47" viewBox="0 0 136 47">
  <defs>
    <clipPath id="clip-Dojoko_Beta_Logo_Dark">
      <rect width="136" height="47"/>
    </clipPath>
  </defs>
  <g id="Dojoko_Beta_Logo_Dark" data-name="Dojoko Beta Logo – Dark" clip-path="url(#clip-Dojoko_Beta_Logo_Dark)">
    <g id="Group_1" data-name="Group 1" transform="translate(-7 -27)">
      <g id="Dojoko_Logo_Final_SVG" data-name="Dojoko Logo Final_SVG" transform="translate(7.422 38.122)">
        <text id="d" transform="translate(-0.422 26.878)" fill="#6a6a6a" font-size="41" font-family="Georgia"><tspan x="0" y="0">d</tspan></text>
        <text id="j" transform="translate(50.889 24.97)" fill="#6a6a6a" font-size="39" font-family="Georgia"><tspan x="0" y="0">j</tspan></text>
        <text id="k" transform="translate(87.256 25.97)" fill="#6a6a6a" font-size="40" font-family="Georgia"><tspan x="0" y="0">k</tspan></text>
        <path id="Path_692" data-name="Path 692" d="M270.434,211.916a12.679,12.679,0,0,1,11.411,7.143,9.813,9.813,0,0,1,1.271,4.842v.7h-.026A9.86,9.86,0,0,1,268,232.25a12,12,0,0,0,11.731,2.551A12.685,12.685,0,0,0,268.8,212.015,12.627,12.627,0,0,1,270.434,211.916Z" transform="translate(-236.64 -208.279)" fill="#6a6a6a"/>
        <path id="Path_693" data-name="Path 693" d="M257.988,239.551a12.688,12.688,0,0,1-12.018-8.614,9.828,9.828,0,0,1-.664-3.558v-.5h0a9.86,9.86,0,0,1,14.367-8.265,11.979,11.979,0,0,0-11.691-1.691A12.685,12.685,0,0,0,258.8,239.531C258.536,239.542,258.262,239.551,257.988,239.551Z" transform="translate(-218.47 -211.825)" fill="#6a6a6a"/>
        <circle id="Ellipse_250" data-name="Ellipse 250" cx="7.008" cy="7.008" r="7.008" transform="translate(29.693 8.368)" fill="#ef4581"/>
        <path id="Path_694" data-name="Path 694" d="M404.808,211.875a12.679,12.679,0,0,1,11.411,7.143,9.781,9.781,0,0,1,1.271,4.842v.7h-.026a9.86,9.86,0,0,1-15.084,7.653,12,12,0,0,0,11.731,2.551,12.685,12.685,0,0,0-10.938-22.792A12.633,12.633,0,0,1,404.808,211.875Z" transform="translate(-332.281 -208.239)" fill="#6a6a6a"/>
        <path id="Path_695" data-name="Path 695" d="M392.355,239.551a12.688,12.688,0,0,1-12.018-8.614,9.828,9.828,0,0,1-.664-3.558c0-.058,0-.114,0-.172v-.332h0a9.86,9.86,0,0,1,14.367-8.265,11.973,11.973,0,0,0-11.688-1.691,12.685,12.685,0,0,0,10.813,22.611C392.9,239.542,392.632,239.551,392.355,239.551Z" transform="translate(-314.102 -211.825)" fill="#6a6a6a"/>
        <circle id="Ellipse_251" data-name="Ellipse 251" cx="7.008" cy="7.008" r="7.008" transform="translate(68.382 8.631)" fill="#feea3a"/>
        <path id="Path_696" data-name="Path 696" d="M569.528,211.875a12.679,12.679,0,0,1,11.411,7.143,9.812,9.812,0,0,1,1.271,4.842v.7h-.026a9.86,9.86,0,0,1-15.084,7.653,12,12,0,0,0,11.731,2.551,12.685,12.685,0,0,0-10.938-22.792A12.633,12.633,0,0,1,569.528,211.875Z" transform="translate(-449.517 -208.239)" fill="#6a6a6a"/>
        <path id="Path_697" data-name="Path 697" d="M557.068,239.551a12.688,12.688,0,0,1-12.018-8.614,9.829,9.829,0,0,1-.664-3.558c0-.058,0-.114,0-.172v-.332h0a9.86,9.86,0,0,1,14.367-8.265,11.979,11.979,0,0,0-11.69-1.691,12.685,12.685,0,0,0,10.813,22.611C557.616,239.542,557.342,239.551,557.068,239.551Z" transform="translate(-431.418 -211.825)" fill="#6a6a6a"/>
        <circle id="Ellipse_252" data-name="Ellipse 252" cx="7.008" cy="7.008" r="7.008" transform="translate(115.822 8.631)" fill="#00acc1"/>
      </g>
      <text id="beta" transform="translate(105 40)" fill="#6a6a6a" font-size="9" font-family="Poppins-Regular, Poppins" letter-spacing="-0.01em"><tspan x="0" y="0">beta</tspan></text>
    </g>
  </g>
</svg>
