<svg xmlns="http://www.w3.org/2000/svg" xmlns:xlink="http://www.w3.org/1999/xlink" width="680" height="235" viewBox="0 0 680 235">
  <defs>
    <clipPath id="clip-Dojoko_Beta_Logo_big">
      <rect width="680" height="235"/>
    </clipPath>
  </defs>
  <g id="Dojoko_Beta_Logo_big" data-name="Dojoko Beta Logo – big" clip-path="url(#clip-Dojoko_Beta_Logo_big)">
    <rect width="680" height="235" fill="#fff"/>
    <g id="Group_1" data-name="Group 1" transform="translate(-7 -27)">
      <g id="Dojoko_Logo_Final_SVG" data-name="Dojoko Logo Final_SVG" transform="translate(7 27)">
        <text id="d" transform="translate(0 190)" fill="#4f4f4f" font-size="207" font-family="Georgia"><tspan x="0" y="0">d</tspan></text>
        <text id="j" transform="translate(255.552 177.462)" fill="#4f4f4f" font-size="193" font-family="Georgia"><tspan x="0" y="0">j</tspan></text>
        <text id="k" transform="translate(438.39 185.462)" fill="#4f4f4f" font-size="202" font-family="Georgia"><tspan x="0" y="0">k</tspan></text>
        <path id="Path_692" data-name="Path 692" d="M280.172,214.787A63.394,63.394,0,0,1,337.225,250.5a49.066,49.066,0,0,1,6.355,24.212v3.513h-.131A49.3,49.3,0,0,1,268,316.459a59.983,59.983,0,0,0,58.657,12.755,63.423,63.423,0,0,0-54.663-113.932A63.149,63.149,0,0,1,280.172,214.787Z" transform="translate(-109.09 -140.993)" fill="#4f4f4f"/>
        <path id="Path_693" data-name="Path 693" d="M320.045,333.355a63.441,63.441,0,0,1-60.088-43.069,49.138,49.138,0,0,1-3.321-17.789v-2.522h0a49.3,49.3,0,0,1,71.834-41.325,59.9,59.9,0,0,0-58.453-8.454,63.423,63.423,0,0,0,54.065,113.057C322.786,333.311,321.416,333.355,320.045,333.355Z" transform="translate(-120.348 -139.111)" fill="#4f4f4f"/>
        <circle id="Ellipse_250" data-name="Ellipse 250" cx="35.042" cy="35.042" r="35.042" transform="translate(150.575 97.452)" fill="#ef4581"/>
        <path id="Path_694" data-name="Path 694" d="M414.522,214.813a63.4,63.4,0,0,1,57.053,35.713,48.9,48.9,0,0,1,6.355,24.212v3.513H477.8a49.3,49.3,0,0,1-75.42,38.264,59.983,59.983,0,0,0,58.657,12.755,63.423,63.423,0,0,0-54.692-113.961A63.171,63.171,0,0,1,414.522,214.813Z" transform="translate(-49.779 -141.018)" fill="#4f4f4f"/>
        <path id="Path_695" data-name="Path 695" d="M454.4,333.355a63.441,63.441,0,0,1-60.089-43.068,49.144,49.144,0,0,1-3.32-17.789c0-.292,0-.569,0-.86v-1.662h0a49.3,49.3,0,0,1,71.834-41.325,59.866,59.866,0,0,0-58.438-8.455,63.423,63.423,0,0,0,54.065,113.057C457.141,333.311,455.786,333.355,454.4,333.355Z" transform="translate(-61.027 -139.111)" fill="#4f4f4f"/>
        <circle id="Ellipse_251" data-name="Ellipse 251" cx="35.042" cy="35.042" r="35.042" transform="translate(344.02 98.768)" fill="#feea3a"/>
        <path id="Path_696" data-name="Path 696" d="M579.242,214.813A63.394,63.394,0,0,1,636.3,250.526a49.057,49.057,0,0,1,6.356,24.212v3.513h-.131a49.3,49.3,0,0,1-75.42,38.264,59.983,59.983,0,0,0,58.657,12.755,63.423,63.423,0,0,0-54.692-113.961A63.175,63.175,0,0,1,579.242,214.813Z" transform="translate(22.923 -141.018)" fill="#4f4f4f"/>
        <path id="Path_697" data-name="Path 697" d="M619.125,333.355a63.441,63.441,0,0,1-60.088-43.069,49.147,49.147,0,0,1-3.32-17.789c0-.292,0-.568,0-.86v-1.662h0a49.3,49.3,0,0,1,71.834-41.325A59.9,59.9,0,0,0,569.1,220.2a63.423,63.423,0,0,0,54.065,113.057C621.866,333.311,620.5,333.355,619.125,333.355Z" transform="translate(11.231 -139.111)" fill="#4f4f4f"/>
        <circle id="Ellipse_252" data-name="Ellipse 252" cx="35.042" cy="35.042" r="35.042" transform="translate(581.219 98.768)" fill="#00acc1"/>
      </g>
      <text id="beta" transform="translate(497 92)" fill="#4f4f4f" font-size="43" font-family="Poppins-Regular, Poppins" letter-spacing="-0.01em"><tspan x="0" y="0">beta</tspan></text>
    </g>
  </g>
</svg>
