<svg xmlns="http://www.w3.org/2000/svg" xmlns:xlink="http://www.w3.org/1999/xlink" width="735.42" height="546.26" viewBox="0 0 735.42 546.26">
  <defs>
    <clipPath id="clip-Artboard_1">
      <rect width="735.42" height="546.26"/>
    </clipPath>
  </defs>
  <g id="Artboard_1" data-name="Artboard – 1" clip-path="url(#clip-Artboard_1)">
    <g id="Group_767" data-name="Group 767" transform="translate(-0.133 0.166)">
      <path id="Path_910" data-name="Path 910" d="M689.208,145.8C605.742,29.65,429.419-17.465,256.011,33.279,164.336,60.106,75.944,113.858,32.139,217.939-46.167,404,118.246,463.417,225.755,482.355c51.985,9.158,100.947,24.54,145.688,45.484,80.494,37.68,222.973,71.068,330.41-85.885C779.725,328.195,744.811,223.167,689.208,145.8Z" transform="translate(-11.697 -13.011)" fill="#f2f2f2"/>
      <path id="Path_911" data-name="Path 911" d="M230.823,253.149a21.492,21.492,0,0,0-1.4-5.378,2.434,2.434,0,0,0-1.238-1.524,2.55,2.55,0,0,0-1.228-.014l-6.3.965a2.417,2.417,0,0,0-1.439.559c-.821.864-.013,2.254-.038,3.446a3.239,3.239,0,0,1-2.51,2.787,9.486,9.486,0,0,1-3.987-.049l-8.816-1.37a14.535,14.535,0,0,0,6.669-4.451c1.16-1.374,1.777-3.94.1-4.591a4.116,4.116,0,0,0-1.531-.123c-3.994.031-7.137-3.3-10.877-4.709a12.026,12.026,0,0,0-13.535,4.035l4.7.226a2.084,2.084,0,0,1,1.251.334c1.029.846-.25,2.47-.105,3.794.188,1.72,2.473,2.088,4.195,2.262s3.906,1.573,3.078,3.093c-8.655,2.981-17.462-5.827-26.551-4.743a53.951,53.951,0,0,0-6.719,1.746c-13.72,3.471-27.9-5.791-41.92-3.829a53.232,53.232,0,0,0-9.151,2.413,12.336,12.336,0,0,0-5.283,2.756c-1.386,1.453-1.914,3.937-.6,5.456a30.7,30.7,0,0,1-10.76-1.023,6.028,6.028,0,0,1,3.1,5.313,63.846,63.846,0,0,0-16.355,4.987,27.547,27.547,0,0,0,3.385,4.509l-7.154,4.6a4.083,4.083,0,0,1,2.261,5.963c2.506-1.115,4.059-4,6.739-4.584,1.756-.383,3.542.335,5.207,1.01s3.5,1.329,5.22.823,3-2.742,1.9-4.166a89.2,89.2,0,0,1,22.659-3.54,2.842,2.842,0,0,1,1.716.326c1,.693.736,2.19.682,3.4s.893,2.811,1.978,2.263c-1.277,1.108-.185,3.192,1.04,4.357s2.7,2.772,1.952,4.287c-.2.4-.528.712-.716,1.111-.556,1.178.327,2.551,1.368,3.333s2.317,1.329,3.04,2.412.395,2.979-.9,3.13l-3.677-4.668a9.571,9.571,0,0,0-2.484,4.707A9.876,9.876,0,0,1,129,308.3c-1.668,1.96-4.04,3.15-6.11,4.679s-3.986,3.705-3.981,6.278c.009,4.446-.354,8.576,1.312,12.7a195.61,195.61,0,0,0,10.62,22.156c1.051,1.879,2.408,3.938,4.537,4.262q-4.035-9.822-7.264-19.949c1.4.006,3.023.117,3.845,1.253.681.941.534,2.22.746,3.361a10.413,10.413,0,0,0,1.328,3.122l12.844,22.879c1.065,1.9,2.286,3.933,4.321,4.7,1.3.491,2.806.4,4,1.106.939.554,1.571,1.538,2.528,2.06,2.706,1.476,6.468-1.355,9,.408a25.318,25.318,0,0,1,1.849,1.881c2.335,2.022,6.166.669,8.862,2.178,1.737.972,2.638,2.917,3.565,4.679,2.321,4.414,6.077,8.738,11.052,9.09,1.563.11,3.159-.186,4.686.162s3.031,1.681,2.786,3.228c-.42,2.653.89,5.557.538,8.22-.641,4.85-7.52,6.981-8.111,11.838a27.472,27.472,0,0,1-.18,3.2c-.31,1.276-1.268,2.314-1.609,3.582-.645,2.4,1.076,4.794,2.967,6.41s4.147,3.01,5.181,5.273c1.093,2.392.556,5.181.911,7.786.776,5.688,5.689,9.9,10.745,12.624,1.54.828,3.194,1.63,4.192,3.067,1.3,1.876,1.172,4.348,1.606,6.59,1.064,5.489,5.685,10.011,5.816,15.6.093,3.973-2.115,7.577-3.434,11.325a26.412,26.412,0,0,0,2.157,21.9,35.077,35.077,0,0,1,2.865,5.044c1.246,3.224.842,6.888,1.99,10.148,1.519,4.309,5.691,7.869,5.292,12.42,1.894,3.934,6.078,5.867,10.284,7.038l7.539,2.1a9.687,9.687,0,0,0,4.422.516,3.318,3.318,0,0,0,2.835-3.009c-3.7-.834-7.513-1.72-10.56-3.973s-5.135-6.265-3.979-9.874c.536-1.674,1.677-3.606.592-4.989-.621-.792-1.756-1-2.457-1.721-1.092-1.127-.717-3.02.068-4.378s1.92-2.573,2.237-4.11a4.288,4.288,0,0,0-2.01-4.461,10.66,10.66,0,0,0,3.731-2.394,3.638,3.638,0,0,0,.663-4.122c2.292.291,5,.433,6.5-1.32,1.2-1.4,1.119-3.494.644-5.277s-1.277-3.515-1.3-5.36a97.673,97.673,0,0,0,15.846-.537,10.275,10.275,0,0,0-4.818-6.034c2.382-.4,4.552-3.254,5.3-5.55a14.279,14.279,0,0,0,.1-7.166,3.846,3.846,0,0,1-.071-1.877,3.659,3.659,0,0,1,1.885-1.822l11.822-6.789a6.886,6.886,0,0,0,1.891-1.4c1.239-1.455,1.055-3.651.421-5.454s-1.65-3.5-1.894-5.392c-.731-5.668,5.336-9.734,7.384-15.069a22.7,22.7,0,0,0,1.123-6.607c.167-2.4.179-5.194-1.665-6.742-1.769-1.484-4.532-1.153-6.382-2.534-1.7-1.266-2.282-3.724-4.135-4.747-1.683-.928-3.794-.338-5.666-.775-3.3-.769-5.37-4.568-8.737-4.92-1.9-.2-4.049.73-5.606-.376-1.372-.975-1.427-2.934-1.688-4.6a12.836,12.836,0,0,0-10.36-10.393c-1.958-.314-4.09-.195-5.756-1.271-1.687-1.09-2.46-3.13-3.786-4.639-2.136-2.432-5.5-3.3-8.65-4.037L213.4,386.488c-2.275-.535-5.208-.818-6.429,1.174a9.211,9.211,0,0,0-.76,2.392,7.407,7.407,0,0,1-6.966,5.243,8.237,8.237,0,0,0-4.857-3.758,30.268,30.268,0,0,1-3.93-.935,5.521,5.521,0,0,1-2.4-7.658,6.872,6.872,0,0,0-1.174-8.266c-2.18-1.957-5.332-2.43-8.255-2.234-.765-1.67.514-3.555,1.894-4.768s3.054-2.407,3.354-4.22c.472-2.851-3.165-5.017-5.927-4.166s-4.525,3.533-5.69,6.177a18.186,18.186,0,0,1-2.292,4.395,4.5,4.5,0,0,1-4.36,1.785c-2.274-.581-3.153-3.283-3.656-5.576a36.266,36.266,0,0,1-1.213-9.342,12.215,12.215,0,0,1,3.522-8.507c3.781-3.471,9.581-3.131,14.683-2.577a3.729,3.729,0,0,1,.382-4.926,5.6,5.6,0,0,1,5.076-1.247,7,7,0,0,1,3.932,2.351c1.45,1.768,1.862,4.155,2.958,6.161s3.56,3.718,5.577,2.642c1.742-.93,2.019-3.346,1.585-5.272s-1.355-3.8-1.2-5.769c.3-3.756,4.193-6.017,7.629-7.564s7.37-3.628,7.915-7.356a6.708,6.708,0,0,1,.408-2.138,4.194,4.194,0,0,1,1.538-1.447c10.028-6.627,20.223-13.335,31.684-16.956.6-.188.666.021,1.274-.127.851-.492.287-1.851-.528-2.4s-1.905-.968-2.112-1.928c-.152-.706.264-1.4.372-2.113a2.638,2.638,0,0,0-3.463-2.673c-.921-1.219.9-2.636,2.374-3.042a64.474,64.474,0,0,1,13.545-2.213,2.44,2.44,0,0,1,1.541.262,1.843,1.843,0,0,1,.126,2.516,14.81,14.81,0,0,1-2.073,1.882,5.658,5.658,0,0,0-1.468,5.691c2.391,1.216,4.991,2.469,7.64,2.04s5-3.4,3.754-5.781c-1.159-2.213-4.642-2.712-5.24-5.138-.7-2.84,3.319-5.366,2.414-8.148-.4-1.218-1.611-1.935-2.543-2.815a7.639,7.639,0,0,1-1.672-8.47,9.637,9.637,0,0,1-8.452-2.645c-2.022-2.04-3.635-5.259-6.505-5.167-2.634.084-4.9,3.157-7.367,2.22-.606-.231-1.245-.7-1.832-.425a1.514,1.514,0,0,0-.683,1.134c-.626,2.993.451,6.4-1.18,8.989-1.775,2.814-5.881,3.2-8.033,5.742-1.168,1.378-1.621,3.234-2.694,4.686s-3.353,2.376-4.641,1.11a6.4,6.4,0,0,0-1.738-7.779,17.068,17.068,0,0,0-3.838-1.867,22.765,22.765,0,0,1-4.288-2.39,4.224,4.224,0,0,1-1.574-1.684,3.838,3.838,0,0,1,.108-2.664,10.892,10.892,0,0,1,8.667-7.184c1.716-.233,3.712-.151,4.848-1.458.6-.692.916-1.737,1.788-2.018a2.637,2.637,0,0,1,1.651.2l6.4,2.254a4.494,4.494,0,0,0,2.281.377,1.547,1.547,0,0,0,1.337-1.625c-.2-1.063-1.841-1.574-1.692-2.646a1.767,1.767,0,0,1,.536-.9,22.894,22.894,0,0,1,18.158-7.171c.808,1.327-.47,2.9-1.534,4.033s-1.918,3.158-.632,4.03a3.527,3.527,0,0,0,1.705.384,14.886,14.886,0,0,1,4.538,1.376q3.319,1.444,6.511,3.161a8.255,8.255,0,0,1,.164-4.193c.532-1.312,2.043-2.341,3.363-1.83,1.272.492,1.925,2.177,3.28,2.331,1.808.206,2.521-2.465,1.766-4.121s-2.25-3.042-2.375-4.857c-.084-1.225.382-2.744-.6-3.485a2.663,2.663,0,0,0-1.154-.4l-24.429-4.5c-1.451-.267-3.547-.062-3.611,1.411-.036.823.7,1.636.373,2.393-.347.807-1.488.733-2.319,1.019a3.17,3.17,0,0,0-1.813,3.332,9.271,9.271,0,0,0,1.53,3.755C234.817,253.936,232.411,253.814,230.823,253.149Z" transform="translate(-37.23 -97.381)" fill="#3f3d56"/>
      <path id="Path_912" data-name="Path 912" d="M284.706,228.81a7.911,7.911,0,0,0-8.689,2.6,1.74,1.74,0,0,0-.4,1.833c.483.822,1.713.5,2.62.2a6.593,6.593,0,0,1,4.138-.1c.852.292,1.613.809,2.469,1.09a2.486,2.486,0,0,0,2.535-.37A3.3,3.3,0,0,0,288,231.7a1.9,1.9,0,0,0-.485-1.565,2.488,2.488,0,0,0-1.122-.332,3.865,3.865,0,0,1-2.262-1.322" transform="translate(-110.606 -93.778)" fill="#3f3d56"/>
      <path id="Path_913" data-name="Path 913" d="M303.064,225.125a2.012,2.012,0,0,0-1.945,2.834,8.157,8.157,0,0,0,3.252.212,2.78,2.78,0,0,0,2.273-2.084,5.233,5.233,0,0,1-3.705-.708" transform="translate(-120.155 -92.546)" fill="#3f3d56"/>
      <path id="Path_914" data-name="Path 914" d="M346.617,216.974a37.409,37.409,0,0,0-8.339,2.833,6.266,6.266,0,0,1,4,6.293,3.277,3.277,0,0,0,.038,1.556c.306.742,1.194,1.021,1.974,1.212a13.014,13.014,0,0,0,4.33.553,4.411,4.411,0,0,0,3.584-2.19,15.606,15.606,0,0,1,.745-1.762c1.87-2.848,7.426.6,9.434-2.157.707-.97.643-2.429,1.565-3.2a3.515,3.515,0,0,1,1.609-.614,112.964,112.964,0,0,1,12.218-1.74c1.943-.169,4.476-.867,4.493-2.818a33.845,33.845,0,0,0-21.589,2.9c-2.407,1.205-5.59,3.741-7.908,2.143-.868-.6-.825-2.21-2.02-2.882C349.53,216.419,347.913,216.7,346.617,216.974Z" transform="translate(-134.154 -88.491)" fill="#3f3d56"/>
      <path id="Path_915" data-name="Path 915" d="M389.191,221.231l3.436.66a4.453,4.453,0,0,0-4.634,4.825c3.218,1.075,6.726.029,10.115.172s7.333,2.564,6.755,5.907c-.175,1.011-.759,2.021-.455,3a11.164,11.164,0,0,0,1.16,1.807c.712,1.318.143,2.985-.757,4.183s-2.109,2.154-2.9,3.427c-1.964,3.167-.848,7.261.322,10.8a9.52,9.52,0,0,0,1.831,3.656c1.733,1.843,4.557,2,7.087,2.04,1.841.027,3.95-.064,5.114-1.49,1.52-1.862.457-4.768,1.458-6.953.909-1.985,3.224-2.836,5.322-3.44a79.643,79.643,0,0,0,11.394-3.718c4.512-2.075,8.729-5.309,13.688-5.577a18.788,18.788,0,0,0,4.157-.292c1.34-.381,2.613-1.54,2.512-2.929-.087-1.187-1.091-2.059-1.876-2.954s-1.4-2.271-.68-3.218l13-2.428c-.921-2.511-1.639-5.818.478-7.453.764-.59,1.787-.825,2.437-1.538,1.109-1.215.551-3.308-.729-4.342a8.349,8.349,0,0,0-4.649-1.409,124.741,124.741,0,0,0-17.142.152l-33.489,1.836c-2.247.123-4.842-.065-6.9.7-1.745.649-2.985,1.84-4.981,2.259C396.579,219.686,392.524,219.163,389.191,221.231Z" transform="translate(-152.79 -88.271)" fill="#3f3d56"/>
      <path id="Path_916" data-name="Path 916" d="M487.562,267.684a1.383,1.383,0,0,0-1,.227,1.263,1.263,0,0,0-.326.771,5.093,5.093,0,0,0,.74,3.645,3.57,3.57,0,0,0,3.268,1.567c1.547-.2,2.687-1.517,4.11-2.161,2.192-.992,11.5-2.538,5.062-6.017-2.219-1.2-3.654-.141-5.4.649A12.294,12.294,0,0,1,487.562,267.684Z" transform="translate(-189.605 -107.564)" fill="#3f3d56"/>
      <path id="Path_917" data-name="Path 917" d="M577.471,221.27a3.677,3.677,0,0,0-1.789,1.557,1.571,1.571,0,0,0,.589,2.084,2.345,2.345,0,0,0,.877.139l3.058.091c1.3.039,2.922.315,3.271,1.567.259.93-.321,2.124.379,2.788a1.972,1.972,0,0,0,1.04.406,7.088,7.088,0,0,0,3.081.1c2.225-.6,1.056-1.955,1.757-3.164,1.072-1.85.887-.73,2.776-1.79,1.4-.783,3.2-2.2,2.033-4.2C592.518,217.379,580.459,219.779,577.471,221.27Z" transform="translate(-223.105 -90.274)" fill="#3f3d56"/>
      <path id="Path_918" data-name="Path 918" d="M667.016,219.6l-1.776.237a71.516,71.516,0,0,0-11.887,2.276,19.785,19.785,0,0,0,5.206,1.277,15.99,15.99,0,0,1,2.916.415c1.7.507,3.42,1.816,5.065,1.146,1.02-.416,1.353-1.478,2.2-2.041.584-.389,2.8-1.018,3.045-1.41C673.783,218.326,668.553,219.394,667.016,219.6Z" transform="translate(-252.298 -90.348)" fill="#3f3d56"/>
      <path id="Path_919" data-name="Path 919" d="M682.786,231.725a33.3,33.3,0,0,0-6.552,4.8,3.967,3.967,0,0,0-1.611,2.9c.1,1.518,1.718,2.4,3.119,2.993l5.676,2.4c.689-.971.058-2.31-.653-3.264s-1.557-2.057-1.243-3.2c.359-1.31,1.956-1.756,3.295-1.982,2.182-.368,8.068-.338,7.36-3.854C691.344,228.373,684.976,230.5,682.786,231.725Z" transform="translate(-260.272 -94.404)" fill="#3f3d56"/>
      <path id="Path_920" data-name="Path 920" d="M685.628,593.6a5.416,5.416,0,0,0,.343,4.773,4.836,4.836,0,0,0,4.964,1.715,8.942,8.942,0,0,0,4.609-2.963,15.868,15.868,0,0,0,2.651-4.065,31.728,31.728,0,0,0,1.965-7.189l1.762-9.253c.394-2.068.379-8.408-3.422-6.342-1.038.564-3.443,5.02-4.531,6.283-1.961,2.277-2.221,4.487-3.253,7.245C689.422,587.261,686.823,590.141,685.628,593.6Z" transform="translate(-264.255 -221.815)" fill="#3f3d56"/>
      <path id="Path_921" data-name="Path 921" d="M1003.775,682.565a27.7,27.7,0,0,1-3.612-1.719,30.448,30.448,0,0,0-1.831,9.979l8.51-4.816c1.28-.724,2.731-1.731,2.7-3.2a1.013,1.013,0,0,0-.47-.921,1.147,1.147,0,0,0-.6-.07,14.4,14.4,0,0,0-3.6,1.158,4.4,4.4,0,0,1-3.675.019" transform="translate(-381.654 -263.428)" fill="#3f3d56"/>
      <path id="Path_922" data-name="Path 922" d="M1070.6,686.387a18.438,18.438,0,0,0-2.729.979c-1.953.994-3.282,2.881-5.039,4.19a19.991,19.991,0,0,1-5.694,2.609,1.365,1.365,0,0,0,.319,2.012,3.946,3.946,0,0,0,2.248.505c2.065.046,4.24.065,6.048-.932a19.081,19.081,0,0,0,2.848-2.26,30.162,30.162,0,0,1,7.167-4.053,8.226,8.226,0,0,0,2.5-1.494c1.579-1.556,1.691-3.957-.587-4.486C1075.838,683.028,1072.35,685.82,1070.6,686.387Z" transform="translate(-403.583 -264.39)" fill="#3f3d56"/>
      <path id="Path_923" data-name="Path 923" d="M1106.086,663.951a7.1,7.1,0,0,0-2.172-5.817c-.023,2.142-.088,4.425-1.293,6.2-.859,1.262-2.2,2.115-3.145,3.317s-1.358,3.108-.255,4.163a4.135,4.135,0,0,0,2.45.844c2.2.258,4.738.4,6.279-1.184.841-.866,1.25-2.149,2.275-2.785a2.767,2.767,0,0,0,1-.714c.423-.673-.249-1.56-1.007-1.8s-1.592-.129-2.353-.359-1.459-1.086-1.069-1.779" transform="translate(-419.237 -254.912)" fill="#3f3d56"/>
      <path id="Path_924" data-name="Path 924" d="M1033.54,537.337a9.868,9.868,0,0,1-3.523.208c-1.955-.359-3.477-1.833-5.055-3.042a22.3,22.3,0,0,0-13.029-4.552c-4.289-.081-8.619,1.081-12.831.27a5.061,5.061,0,0,0,2.983,3.362c1.4.682,2.94,1.026,4.345,1.694a10.373,10.373,0,0,1,5.025,5.227,14.75,14.75,0,0,0,1.422,3.127c1.4,1.884,4.055,2.3,6.4,2.144,3.054-.2,6.244-1.079,9.086.059,2.174.87,3.73,2.773,5.545,4.253s4.371,2.577,6.456,1.51a10.672,10.672,0,0,1-7.384-10.269c2.044.188,7.932.115,7.615-3.358C1040.321,535.025,1035.3,537.019,1033.54,537.337Z" transform="translate(-381.942 -206.845)" fill="#3f3d56"/>
      <path id="Path_925" data-name="Path 925" d="M974.8,574.044c.363-1.991,2.348-3.748,1.73-5.675-.428-1.332-1.972-1.99-3.371-2.023s-2.773.384-4.172.423a20.344,20.344,0,0,0-2.732.039c-2.777.456-4.488,3.367-7.1,4.4-1.591.629-3.379.509-5.033.944-3.756.987-6.133,4.537-8.759,7.4a31.259,31.259,0,0,1-15.866,9.253c-2.136.494-4.432.811-6.129,2.2-2.248,1.837-2.8,4.986-3.3,7.846a129.591,129.591,0,0,1-6.308,23.158l8.919,1.139a12.123,12.123,0,0,0,5.087-.074,14.771,14.771,0,0,0,3.346-1.782,33.4,33.4,0,0,1,13.05-4.711,13.856,13.856,0,0,1,6.977.489,6.488,6.488,0,0,1,4.256,5.188,5.48,5.48,0,0,1,5.477,1.332,9.519,9.519,0,0,1,2.615,5.22c.235,1.22.47,2.682,1.6,3.194.924.418,1.983-.032,2.994-.113,3.429-.274,6.275,3.724,9.645,3.036,3.615-.739,4.5-6.152,8.029-7.237,2.025-.623,4.866.135,5.836-1.75.855-1.661-.851-3.577-.675-5.436.217-2.29,2.917-3.261,5-4.238,7.178-3.368,10.584-13.029,7.106-20.154-2.061-4.222-6.116-7.545-6.865-12.182-.576-3.568.83-7.729-1.445-10.538-1.157-1.429-3.117-2.217-3.805-3.922-.433-1.073-.259-2.291-.492-3.424s-1.222-2.319-2.342-2.026c-3.249.853-4.286,10.891-6.026,13.33C979.39,581.054,973.958,578.612,974.8,574.044Z" transform="translate(-349.937 -219.603)" fill="#3f3d56"/>
      <path id="Path_926" data-name="Path 926" d="M912.551,547.6a5.231,5.231,0,0,0-3.387-.173c-1.064.445-1.685,2.007-.831,2.782,6.681-.26,13.4-.519,20.026.389,7.632,1.045,15.185,3.635,22.85,2.873a116.294,116.294,0,0,0-13.33-3.093l-7.5-1.434a58.052,58.052,0,0,0-6.094-.942C920,547.649,916.761,548.78,912.551,547.6Z" transform="translate(-347.757 -213.316)" fill="#3f3d56"/>
      <path id="Path_927" data-name="Path 927" d="M922.184,505.781c-.555-.046-1.241-.086-1.528.391-.274.456.04,1.057-.108,1.568-.2.7-1.115.876-1.836.781a3.517,3.517,0,0,0-2.137.025,1.812,1.812,0,0,0-.7,2.058,5.3,5.3,0,0,0,1.235,1.969,20.109,20.109,0,0,0,3.2,3.215c2.3,1.695,5.407,2.512,6.853,4.972a3.3,3.3,0,0,0,.915,1.232,2.544,2.544,0,0,0,2.347-.236l2.62-1.2a2.976,2.976,0,0,0,1.225-.833c.6-.812.231-1.967-.271-2.842a4.884,4.884,0,0,1-1.038-2.784c.192-1.789,2.492-2.473,3.438-4s.333-3.53.443-5.34c.129-2.117,1.459-4.87-.681-6.452-1.819-1.344-3.557-.1-4.863,1.382C928.548,502.815,927.246,506.2,922.184,505.781Z" transform="translate(-350.701 -194.765)" fill="#3f3d56"/>
      <path id="Path_928" data-name="Path 928" d="M951.178,456.312c.894,1.713,2.759,2.735,3.735,4.4,1.057,1.808.937,4.144,2.084,5.9,1.177,1.8,3.545,2.752,4.2,4.8.721,2.233-.914,4.946.389,6.9a2.9,2.9,0,0,0,4.247.39,3.115,3.115,0,0,0-.129-4.346c-.771-.7-1.879-1.007-2.524-1.829a3.835,3.835,0,0,1-.654-1.591,10.417,10.417,0,0,1,.164-4.993,2.222,2.222,0,0,0,.126-1.306c-.29-.843-1.432-.9-2.233-1.294-1.82-.888-1.775-3.456-1.458-5.456-.212,1.331-4.954-.933-5.45-1.687-.987-1.5-.45-4.388-.645-6.043A4.7,4.7,0,0,0,951.178,456.312Z" transform="translate(-363.791 -176.924)" fill="#3f3d56"/>
      <path id="Path_929" data-name="Path 929" d="M872.445,501.218c-.875-.98-2.194-2-3.367-1.414a2.132,2.132,0,0,0-.791,2.629,5.786,5.786,0,0,0,1.909,2.276,66.64,66.64,0,0,1,7.212,6.182c3.818,4.2,5.84,9.857,9.992,13.722a5.6,5.6,0,0,0,3.146,1.7,2.445,2.445,0,0,0,2.707-1.869A3.563,3.563,0,0,0,892,521.826c-1.613-1.754-3.379-3.369-4.9-5.2a4.371,4.371,0,0,1-1.253-2.617c-.008-.987.892-2.02,1.849-1.776-1.163-.3-2.026-2.235-3.733-2.6-1.427-.3-1.772.579-3.469-.149C877.253,508.094,874.712,503.757,872.445,501.218Z" transform="translate(-332.834 -195.478)" fill="#3f3d56"/>
      <path id="Path_930" data-name="Path 930" d="M986.474,348.841a26.815,26.815,0,0,1-2.736-.977c-2.4-.722-5.585,1.045-5.265,3.535.213,1.654,1.752,2.769,2.6,4.2,1.261,2.128.925,4.827.262,7.21a5.635,5.635,0,0,1-.91,2.051,6.948,6.948,0,0,1-2.155,1.549,28.817,28.817,0,0,0-8.432,7.163,2.064,2.064,0,0,0-.509.96c-.115.841.73,1.453,1.208,2.154,1.061,1.557.294,3.653.4,5.535a1.564,1.564,0,0,0,.659,1.373c.64.325,1.4-.227,1.744-.855,1.15-2.084.284-5.43,2.442-6.435.408-.19.9-.27,1.175-.629.432-.569.015-1.411.234-2.091.329-1.021,1.725-1.067,2.8-1.021a15.875,15.875,0,0,0,5.453-.726,3.629,3.629,0,0,0,1.8-1.045,3.927,3.927,0,0,0,.459-2.974,40.307,40.307,0,0,0-4.762-14.532c1.9.242,3.958.452,5.594-.536.916-.553,2.015-2.208,1.56-3.334C989.384,347.64,988.085,349.139,986.474,348.841Z" transform="translate(-370.776 -138.509)" fill="#3f3d56"/>
      <path id="Path_931" data-name="Path 931" d="M561.178,386.43a7.3,7.3,0,0,1,.051,3.67,2.51,2.51,0,0,1-2.838,1.792c-.919-.279-1.45-1.2-2.1-1.908-3.63-3.919-11.821-1.65-14.063-6.5-.915-1.979-.293-4.35-.918-6.438a5.731,5.731,0,0,0-5.8-3.943,11.925,11.925,0,0,0-3.34,1,84.21,84.21,0,0,1-22.127,5.534,18.182,18.182,0,0,0-4.252.774c-3.117,1.13-5.248,4.02-6.763,6.97s-2.635,6.142-4.667,8.763c-2.136,2.754-5.129,4.682-7.921,6.768a8.081,8.081,0,0,0-2.613,2.739,8.568,8.568,0,0,0-.524,4.069l.571,16.778A15.152,15.152,0,0,0,485,432.82c1.206,2.412,3.589,3.991,5.242,6.122a11.99,11.99,0,0,1,2.487,7.657c-.035,1.111-.146,2.424.719,3.122a3.163,3.163,0,0,0,1.769.509l22.7,1.858c3.992.327,8.417.864,11.023,3.906,1.23,1.436,2.218,3.5,4.1,3.654a15.243,15.243,0,0,0,2.4-.33c2.039-.161,3.831,1.386,4.962,3.091a13.716,13.716,0,0,1,2.2,8.8c-.185,1.945-.788,3.836-.918,5.785-.495,7.418,5.794,13.862,5.915,21.3.072,4.372-2,8.458-4.028,12.334,3.266,4.948.592,11.536,1.892,17.32,1.234,5.488,5.809,9.783,6.949,15.291.522,2.521.552,5.624,2.776,6.923a6.329,6.329,0,0,0,3.141.629,41.4,41.4,0,0,0,18.854-4.292c2.749-1.364,5.6-3.4,6.079-6.432.387-2.445-.852-5.179.409-7.308,1.487-2.51,5.3-2.311,7.484-4.24,3.549-3.13.782-9.1,2.22-13.609,1.293-4.053,5.742-6.206,7.948-9.843a17.487,17.487,0,0,0,1.847-5.006,71.393,71.393,0,0,0,1.879-12.767,76.559,76.559,0,0,1,.578-7.82c2.378-14.774,16.984-24.668,21.726-38.861.453-1.355.666-3.161-.54-3.928a3.453,3.453,0,0,0-2.3-.24l-10.462,1.319a7.2,7.2,0,0,1-3.87-.223c-1.193-.54-2.049-2.049-1.416-3.2,1.777-3.219-1.878-7.286-3.5-10.585a156.19,156.19,0,0,0-15.554-25.224,2.564,2.564,0,0,1-.682-1.481l2.969.1c-1-3.6-2.656-7.532-6.151-8.848-1.969-.741-4.15-.485-6.25-.37C573.585,388.259,567.134,387.351,561.178,386.43Z" transform="translate(-188.523 -148.03)" fill="#3f3d56"/>
      <path id="Path_932" data-name="Path 932" d="M591.171,250.14c1.575,1.672,3.339,3.445,5.617,3.736,4.024.515,6.917-3.646,8.759-7.261a3.548,3.548,0,0,0,3.7,3.282,7.309,7.309,0,0,0,2.785-1.089,54.856,54.856,0,0,1,25.988-6.718,2.807,2.807,0,0,1,2.143-3.085c1.847-.366,3.511,1.231,4.4,2.89s1.447,3.582,2.862,4.824,4.157,1.188,4.716-.611c.537-1.726-1.262-3.2-2.756-4.216s-3.069-2.9-2.063-4.4c7.634-1.69,15.315-3.386,23.126-3.722a9.685,9.685,0,0,0,3.893-.671,3.026,3.026,0,0,0,1.818-3.2,8.815,8.815,0,0,1-9.2-3.47c10.839-.894,22.367-1.657,31.972,3.443,1.153,2.474-4.722,4.533-3.15,6.765a2.845,2.845,0,0,0,2.376.811c6.675.124,13.389.245,19.988-.762a26.765,26.765,0,0,1,7.269-.59c4.033.5,7.483,3.188,11.451,4.066a6.127,6.127,0,0,0,4.787-.57c1.361-.939,1.946-3.078.831-4.3,3.736-3.662,9.936-2.754,14.865-1s9.6,4.58,14.814,4.971c3.741.28,7.533-.726,11.229-.086,2.323.4,4.484,1.435,6.755,2.07,4.294,1.2,8.835.947,13.293,1a93.144,93.144,0,0,1,33.193,6.6,9.868,9.868,0,0,1,3.69,2.18,3.618,3.618,0,0,1,.824,3.97l-10.921-1.6c1.029,2.026,3.691,2.371,5.853,3.07s4.4,3.086,3.1,4.95c-2.342-.746-4.465,1.6-5.648,3.751s-2.625,4.735-5.08,4.866c-2.2.118-4.857-1.754-6.289-.083a42.9,42.9,0,0,1,5.054,8.08c1.415,2.949,2.424,6.665.51,9.318a2.415,2.415,0,0,1-1.291,1c-1.562.4-2.578-1.516-3.7-2.674-1.412-1.46-3.547-1.874-5.46-2.558s-3.926-2.032-4.076-4.057a8.105,8.105,0,0,1,1.062-3.6,13.856,13.856,0,0,0,1.053-6.215,7.059,7.059,0,0,0-1.814-4.683,3.635,3.635,0,0,0-4.666-.479c-.615.51-1.108,1.327-1.907,1.358-1.411.054-2.495-2.406-3.63-1.566a3.858,3.858,0,0,1-.524,2.58c-3.388,2.947-8.593,1.7-12.961,2.741a24.328,24.328,0,0,0-5.913,2.582,3.8,3.8,0,0,0-1.69,1.419,2.617,2.617,0,0,0,1.017,3.121,8.073,8.073,0,0,0,3.353,1.145c5.325,1.008,10.728,2.57,14.932,5.99s6.961,9.074,5.631,14.328l-10.5-10.034q.6,6.32.679,12.674a5.7,5.7,0,0,1-.333,2.438c-.749,1.654-2.778,2.21-4.556,2.575a3.569,3.569,0,0,0-2.739,4.572c.632,2.059,2.207,3.664,3.649,5.264s2.862,3.418,3.05,5.563-1.43,4.564-3.579,4.415c-1.629-.113-2.837-1.571-3.532-3.049s-1.108-3.123-2.152-4.379c-3.159-3.8-10.256-2.172-13.087-6.223a6.4,6.4,0,0,0-1.324,6.092c1.317-.824,3.119-.058,4.109,1.139a28.062,28.062,0,0,1,2.233,4.079c1.048,1.815,2.717,3.425,2.863,5.516a18.026,18.026,0,0,0,.04,2.372c.26,1.267,1.331,2.177,2.073,3.236,1.728,2.464,1.642,5.85.529,8.646a26.662,26.662,0,0,1-5.1,7.4,89.221,89.221,0,0,1-11.1,11.175,11.659,11.659,0,0,0-3.15,3.17,3.438,3.438,0,0,0,.354,4.148c-.8.04-2.24.434-3.042.475a70.716,70.716,0,0,1-.183-9.674c-3.164-1.519-6.571,2.55-6.163,6.036s2.93,6.284,4.725,9.3c1.313,2.206,2.289,4.778,1.85,7.307s-2.7,4.862-5.253,4.639c-4.068-.355-5.769-6.194-9.8-6.862a1.646,1.646,0,0,0-1.06.105c-.6.328-.7,1.128-.735,1.809-.165,3.343-.307,6.82,1,9.9,1.909,4.51,6.842,8.3,5.807,13.084-5.574-2.591-8.472-8.842-9.788-14.846s-1.535-12.307-3.894-17.984c-1.791,2.3-5.556.4-7.192-2.01-1.551-2.283-2.507-4.924-4.012-7.238s-3.811-4.386-6.568-4.513c-2.891-.133-5.4,1.851-7.6,3.725a17.724,17.724,0,0,0-4.735,5.274c-1.542,3.1-1.139,6.756-1.213,10.218-.08,3.743-.874,7.692-3.425,10.433s-7.26,3.695-10.074,1.225a11.353,11.353,0,0,1-2.814-5.065,247.955,247.955,0,0,1-7.618-27.2c-.473,2.1-2.317,4.808-4.079,3.57a3.652,3.652,0,0,1-.94-1.211c-3.287-5.57-9.373-8.912-15.523-10.915s-12.62-2.938-18.7-5.14a47.369,47.369,0,0,1-9.7-4.832,7.629,7.629,0,0,0-.466,7.8,6.217,6.217,0,0,0,7.015,2.936c1.35-.431,2.491-1.369,3.831-1.832s3.138-.236,3.724,1.055c.561,1.236-.287,2.73.134,4.02.641,1.965,3.6,2.116,4.64,3.9.771,1.33.137,3.1-.964,4.17a17.45,17.45,0,0,1-3.914,2.41c-4.36,2.425-7.461,6.564-11.272,9.784s-9.187,5.572-13.729,3.506c1.083-5.482-5.447-9.506-6.648-14.963-.4-1.8-.19-3.7-.755-5.454-.817-2.534-3.066-4.277-4.91-6.2a24.321,24.321,0,0,1-6.671-17.695c.1-2.255.514-4.547,0-6.745s-2.334-4.326-4.589-4.226c-5.151.228-11.64.611-14.343-3.78-.964-1.567-1.384-3.862.01-5.063.984-.847,2.436-.767,3.728-.64l11.606,1.142c2.714.267,5.649.487,7.978-.932s3.339-5.186,1.182-6.855c-1.576-1.22-4.4-1.154-4.858-3.093-.381-1.615,1.406-3.448.441-4.8-.692-.968-2.249-.7-3.192.026s-1.628,1.787-2.683,2.336c-1.852.964-4.065.047-6.057-.577s-4.664-.676-5.63,1.174c-1.081,2.07.959,4.781-.114,6.855-1.418,2.742-6.221,1.181-8.212,3.539-2.285,2.706,1.555,6.742.784,10.2a6.349,6.349,0,0,1-6.255-.351,6.075,6.075,0,0,1-2.626-5.657c.191-1.555,1-3.143.458-4.613a5.412,5.412,0,0,0-2.741-2.508l-11.278-6.232c-1.047,1.942.277,4.351,1.932,5.81s3.729,2.558,4.817,4.478a5.878,5.878,0,0,1-2.212,7.749,1.357,1.357,0,0,1-1.118.195,1.56,1.56,0,0,1-.725-.975c-1.99-5.092-4.978-10.113-9.754-12.773s-11.64-2.113-14.772,2.368c-.744,1.064-1.243,2.278-1.891,3.4-3.443,5.979-10.825,8.81-17.722,8.625a3.519,3.519,0,0,1-1.933-.454c-1.115-.77-1.064-2.4-.894-3.747l.724-5.7a4.531,4.531,0,0,1,1.262-3.126c1.278-1.008,3.121-.372,4.748-.4a6.017,6.017,0,0,0,5.462-4.215,6.781,6.781,0,0,0-1.888-6.744c-.746-.7-1.747-1.58-1.353-2.525a2.087,2.087,0,0,1,1.464-.986c2.923-.849,6.011-1.071,8.885-2.073s5.661-3.05,6.342-6.017c.209-.909.3-2.01,1.12-2.461a3.359,3.359,0,0,1,1.294-.264,6.3,6.3,0,0,0,5.4-6.566c1.377-.962,3.307-.254,4.639.769s2.509,2.376,4.13,2.817c3.021.822,5.941-1.853,9.073-1.865,1.317-.005,2.68.46,3.919.014,1.256-.453,2.006-1.7,2.97-2.626s2.655-1.487,3.545-.492l-.758-5.614a11.037,11.037,0,0,0,8.982-1.624l-9.8-3.31a2.13,2.13,0,0,1-.916-.49c-.712-.767,0-1.962.574-2.834,1.385-2.085,1.618-5.52-.66-6.559-1.555-.709-3.34.142-4.832.974l-7.15,3.986c-.227,1.359,1.435,2.129,2.465,3.045a4.132,4.132,0,0,1-2.695,7.22,5.149,5.149,0,0,1,.92,4.365l-4.81.346a2.084,2.084,0,0,1-1.56-.3c-.514-.457-.445-1.258-.564-1.935a4.2,4.2,0,0,0-3.524-3.076,12.393,12.393,0,0,0-4.925.455,2.94,2.94,0,0,1-2.117-.049,2.115,2.115,0,0,1-.837-1.057,5.431,5.431,0,0,1,1.093-5.214,28.943,28.943,0,0,1,4.1-3.772,23.9,23.9,0,0,0,7.108-11.024c2.648-1.109,5.39-2.617,8.038-3.727A24.6,24.6,0,0,1,577.3,240.3l8.968.171a21.5,21.5,0,0,1,7.837,1.128c2.455,1.012,4.612,3.2,4.782,5.852a1.8,1.8,0,0,1-.575,1.642,2.119,2.119,0,0,1-1.134.256C594.7,249.436,593.647,250.053,591.171,250.14Z" transform="translate(-200.087 -92.792)" fill="#3f3d56"/>
      <path id="Path_933" data-name="Path 933" d="M518.546,307.942a2.624,2.624,0,0,0,.716-2.639,4.909,4.909,0,0,0-5.083.96,8.571,8.571,0,0,0-1.362,1.8c-1.178,1.923-2.221,4.219-1.538,6.368a1.809,1.809,0,0,0,.828,1.132,2.176,2.176,0,0,0,.965.151,32.342,32.342,0,0,0,3.884-.239c.791-.1,1.711-.32,2.016-1.057.4-.968-.571-2.063-.287-3.072a3.355,3.355,0,0,1,.829-1.187,1.569,1.569,0,0,0,.489-1.317c-.115-.473-.839-.742-1.1-.331" transform="translate(-198.943 -122.488)" fill="#3f3d56"/>
      <path id="Path_934" data-name="Path 934" d="M530.877,295.594a10.867,10.867,0,0,0-3.519-.221,1.535,1.535,0,0,0-.75.17,1.251,1.251,0,0,0-.462.669,3.325,3.325,0,0,0,1.936,4.074,4.16,4.16,0,0,1,1.2.482c1,.772.361,2.351.549,3.6.212,1.4,1.565,2.573,1.317,3.966-.2,1.1-1.367,1.966-1.179,3.065.2,1.15,1.657,1.5,2.821,1.588a3.548,3.548,0,0,0,2-.229,3.1,3.1,0,0,0,1.261-1.826,11.707,11.707,0,0,0,.59-4.408,4.181,4.181,0,0,0-.5-1.945,10.862,10.862,0,0,0-1.161-1.33C532.752,300.652,535.1,296.784,530.877,295.594Z" transform="translate(-204.542 -118.867)" fill="#3f3d56"/>
      <path id="Path_935" data-name="Path 935" d="M711.482,509.378s-170.761-98.019-244.276-79.447c0,0-155.8,16.766-173.855,53.653,0,0-49.525-154.767-67.582-159.926" transform="translate(-91.968 -129.494)" fill="none" stroke="#ef4581" stroke-miterlimit="10" stroke-width="2" opacity="0.8"/>
      <path id="Path_936" data-name="Path 936" d="M293.352,482.965c28.632-76.352,286.577-160.958,286.577-160.958-36.628,9.286-112.722,107.3-112.722,107.3S306.249,312.2,225.77,323.038c0,0,354.416,11.608,485.71,185.72" transform="translate(-91.968 -128.875)" fill="none" stroke="#ef4581" stroke-miterlimit="10" stroke-width="2" opacity="0.8"/>
      <circle id="Ellipse_316" data-name="Ellipse 316" cx="7.48" cy="7.48" r="7.48" transform="translate(126.323 186.684)" fill="#ef4581"/>
      <circle id="Ellipse_317" data-name="Ellipse 317" cx="7.48" cy="7.48" r="7.48" transform="translate(193.904 346.609)" fill="#ef4581"/>
      <circle id="Ellipse_318" data-name="Ellipse 318" cx="7.48" cy="7.48" r="7.48" transform="translate(480.481 185.652)" fill="#ef4581"/>
      <circle id="Ellipse_319" data-name="Ellipse 319" cx="7.48" cy="7.48" r="7.48" transform="translate(612.033 372.404)" fill="#ef4581"/>
      <circle id="Ellipse_320" data-name="Ellipse 320" cx="7.48" cy="7.48" r="7.48" transform="translate(367.759 292.957)" fill="#ef4581"/>
    </g>
  </g>
</svg>
